<svg viewBox="0 0 175 56" fill="none" xmlns="http://www.w3.org/2000/svg"><g clip-path="url(#a)"><path d="M70.184 13.894a2.656 2.656 0 1 1 1.48 5.102 2.656 2.656 0 0 1-1.48-5.102ZM52.776 14.497c.855.005 1.712-.01 2.569 0a2.13 2.13 0 0 1 1.553.552c.38.5.558 1.124.497 1.749-.007 3.024 0 6.047-.005 9.07.61-.037 1.44.123 1.813-.502 1.048-1.601 2.078-3.214 3.124-4.818 1.73.003 3.46.004 5.192.002-1.379 2.065-2.772 4.12-4.159 6.181-.26.389-.553.754-.876 1.092a9.007 9.007 0 0 1 1.388 2.22c1.094 2.196 2.444 4.247 3.691 6.358-1.374-.017-2.75.032-4.125-.023a2.278 2.278 0 0 1-1.952-1.175c-.927-1.64-1.764-3.334-2.672-4.987-.277-.505-.949-.343-1.421-.406-.005 2.199.004 4.395-.005 6.591-1.536 0-3.073-.003-4.61 0-.006-7.301-.006-14.603-.002-21.904ZM80.412 22.324a6.623 6.623 0 0 1 8.776-.869 5.797 5.797 0 0 1 1.72 4.072c.057 3.623-.055 7.25.057 10.87-.9-.013-1.803.046-2.7-.032a1.982 1.982 0 0 1-1.602-.91 4.6 4.6 0 0 1-.317-2.267c-.002-2.157.01-4.315-.005-6.473-.02-.817-.227-1.856-1.115-2.145a3.65 3.65 0 0 0-3.43.92 4.813 4.813 0 0 0-1.283 3.319c-.002 2.53-.002 5.06 0 7.59-1.524.002-3.048.002-4.572 0V20.55c1.106.063 2.264-.174 3.326.23a2.07 2.07 0 0 1 1.145 1.545Z" fill="#fff"/><path d="M118.017 22.699a9.192 9.192 0 0 1 8.713-2.143c1.218.243 2.3.935 3.032 1.939.648 1.066.305 2.365.39 3.54-.906-.018-1.811.04-2.712-.023a1.63 1.63 0 0 1-.799-.412 1.627 1.627 0 0 1-.455-.775c-.139-.432-.618-.58-1.007-.694a4.098 4.098 0 0 0-4.331 1.73 5.034 5.034 0 0 0-.294 4.65 4.248 4.248 0 0 0 3.77 2.324 6.408 6.408 0 0 0 4.819-2.236c.629 1.056 1.272 2.103 1.899 3.16a9.229 9.229 0 0 1-12.79.78 8.458 8.458 0 0 1-.235-11.84ZM153.831 22.532a6.07 6.07 0 0 1 3.743-2.225 5.24 5.24 0 0 1 4.18 1.045c.48.466.884 1.003 1.197 1.594a6.345 6.345 0 0 1 4.579-2.672 5.274 5.274 0 0 1 4.56 1.53 7.086 7.086 0 0 1 1.301 4.57c-.003 3.342.007 6.686-.007 10.029-1.139-.075-2.353.19-3.431-.28-.831-.398-.978-1.42-.962-2.244 0-2.438.009-4.879-.001-7.317-.048-.761-.152-1.744-.939-2.106a2.805 2.805 0 0 0-2.95.744 5.757 5.757 0 0 0-1.465 3.8c.002 2.463-.006 4.926.006 7.39-1.468.02-2.936.004-4.403.01.002-3.111.003-6.222.002-9.331a3.408 3.408 0 0 0-.62-2.238 2.047 2.047 0 0 0-2.172-.412 3.819 3.819 0 0 0-2.06 2.256 9.07 9.07 0 0 0-.551 3.541c.002 2.06.003 4.122.002 6.183l-4.31-.001c-.001-5.268-.001-10.535 0-15.804 1.122.056 2.345-.2 3.38.356a2.297 2.297 0 0 1 .921 1.582Z" fill="#B4B4B4"/><path d="M68.798 20.55a12.604 12.604 0 0 1 3.363.198 2.027 2.027 0 0 1 1.205 1.977c.012 4.558 0 9.116.005 13.675h-4.528c.022-5.285-.033-10.566-.046-15.85ZM23.364 20.401a8.846 8.846 0 0 1 7.507 1.883 8.549 8.549 0 0 1 .575 11.726c-3.17 3.53-9.451 3.527-12.574-.065-3.017-3.388-2.581-9.348 1.129-12.068a8.146 8.146 0 0 1 3.363-1.476Zm.72 3.857a3.653 3.653 0 0 0-2.215 1.893c-.973 2.022-.599 4.924 1.453 6.136a3.767 3.767 0 0 0 4.93-1.11 5.13 5.13 0 0 0-.283-5.827 3.774 3.774 0 0 0-3.884-1.093Z" fill="#fff"/><path d="M40.983 20.42a9.052 9.052 0 0 1 6.764 1.215 7.729 7.729 0 0 1 3.246 4.763 8.607 8.607 0 0 1-1.712 7.488 8.738 8.738 0 0 1-12.586.172 8.58 8.58 0 0 1 .221-11.48 8.04 8.04 0 0 1 4.067-2.157Zm.864 3.827a3.794 3.794 0 0 0-2.591 2.815c-.465 1.84.002 4.12 1.707 5.175a3.817 3.817 0 0 0 4.478-.425 4.631 4.631 0 0 0 1.292-3.663 4.325 4.325 0 0 0-1.559-3.29 3.819 3.819 0 0 0-3.327-.612Z" fill="#fff"/><path d="M137.967 20.379a8.798 8.798 0 0 1 7.45 1.973 8.558 8.558 0 0 1 .479 11.687 8.758 8.758 0 0 1-12.495-.022 8.577 8.577 0 0 1 .395-11.566 8.037 8.037 0 0 1 4.171-2.072Zm.711 3.846a3.638 3.638 0 0 0-2.301 1.855 5.01 5.01 0 0 0 .791 5.74 3.77 3.77 0 0 0 5.154-.143 4.644 4.644 0 0 0 1.16-3.382 4.32 4.32 0 0 0-1.698-3.534 3.855 3.855 0 0 0-3.106-.536Z" fill="#B4B4B4"/><path d="M96.692 20.71a7.069 7.069 0 0 1 7.199.961 1.939 1.939 0 0 1 1.338-1.087 20.516 20.516 0 0 1 2.758-.08c.003 4.86.004 9.718.001 14.577a7.178 7.178 0 0 1-1.766 4.92 8.864 8.864 0 0 1-6.29 2.536 12.376 12.376 0 0 1-6.168-1.513c.318-.901.684-1.785 1.095-2.648a1.162 1.162 0 0 1 1.23-.58c.76.138 1.477.458 2.248.556a5.365 5.365 0 0 0 4.023-.678 3.273 3.273 0 0 0 1.067-2.842 6.401 6.401 0 0 1-5.265 1.096 6.663 6.663 0 0 1-4.405-3.022 9.714 9.714 0 0 1-1.072-7.065 6.933 6.933 0 0 1 4.007-5.131Zm2.275 3.7a3.087 3.087 0 0 0-1.76 2.476 5.264 5.264 0 0 0 .782 4.044 3.098 3.098 0 0 0 4.784.053c.652-1.12.9-2.431.701-3.712a3.233 3.233 0 0 0-1.529-2.733 3.898 3.898 0 0 0-2.978-.129ZM.478 16.805a2.269 2.269 0 0 1 2.228-2.308H8.32a7.142 7.142 0 0 1 5.061 1.942 5.632 5.632 0 0 1-.18 7.695c-.243.226-.499.434-.75.648a5.47 5.47 0 0 1 2.568 2.386 6.42 6.42 0 0 1-.377 6.256c-1.339 1.99-3.828 2.833-6.137 2.885-2.674.009-5.35 0-8.025.003C.478 29.81.477 23.308.478 16.805Zm4.64 1.65a1.725 1.725 0 0 0-.415 1.306c-.004 1.177.004 2.353 0 3.53 1.146-.005 2.292.016 3.438-.005a2.318 2.318 0 0 0 1.798-.867 2.861 2.861 0 0 0-.4-3.86c-.807-.59-1.856-.425-2.793-.451-.547.014-1.2-.073-1.629.346Zm.123 8.481a1.545 1.545 0 0 0-.538 1.349c-.004 1.428.002 2.856.002 4.283 1.316-.007 2.635.01 3.954-.004a2.603 2.603 0 0 0 2.245-1.31 3.277 3.277 0 0 0-.58-3.903c-.897-.752-2.136-.658-3.23-.665a3.558 3.558 0 0 0-1.853.25Z" fill="#fff"/><path d="M111.68 31.362a2.654 2.654 0 0 1 2.901 4.045 2.655 2.655 0 1 1-2.901-4.045Z" fill="#B4B4B4"/></g><defs><clipPath id="a"><path fill="#fff" d="M.477.8h173.886v54.4H.477z"/></clipPath></defs></svg>