<svg viewBox="0 0 137 56" fill="none" xmlns="http://www.w3.org/2000/svg"><g clip-path="url(#a)" fill="#fff"><path d="m17.215 38.727 2.53 2.916-.078.077c-2.102 2.379-4.632 3.53-7.746 3.53-3.114 0-5.955-.997-8.018-2.8C1.645 40.453.477 37.73.477 34.468c0-3.262 1.168-5.986 3.426-7.943 2.063-1.803 4.904-2.8 8.018-2.8 3.114 0 5.644 1.15 7.745 3.53l.079.076-2.53 2.916-.117-.115c-1.596-1.534-3.426-2.34-5.333-2.34-3.931 0-6.811 2.8-6.811 6.676 0 3.875 2.841 6.676 6.811 6.676 1.907 0 3.737-.806 5.333-2.34l.117-.078Zm5.098 6.101h4.477V24.071h-4.477v20.757Zm21.992-4.527c-1.206.69-2.296 1.036-3.308 1.036-1.44 0-2.102-.73-2.102-2.34V27.984h4.554V24.07h-4.515v-6.446l-4.398 2.226v4.22H30.76v3.914h3.776v11.74c0 3.184 1.985 5.371 4.943 5.448 2.024.038 3.23-.537 3.97-.959l.039-.038 1.09-3.99-.273.115Zm3.737 4.527h4.477V24.071h-4.477v20.757ZM61.08 28.982c1.752-2.072 3.777-3.146 5.995-3.146 3.698 0 5.8 3.07 5.8 8.403 0 5.947-1.908 8.978-5.683 8.978-2.452 0-4.749-1.228-6.15-3.3l-.039-.077V29.097l.077-.115ZM58.474 17.55v27.278h2.569v-2.839l.506.537c1.713 1.88 3.58 2.724 5.955 2.724 4.827 0 7.94-4.373 7.94-11.126 0-6.6-2.763-10.436-7.55-10.436-2.413 0-4.477.959-6.345 2.954l-.506.5V16.09c-.623.384-2.375 1.343-2.569 1.458Zm27.675 16.613c2.451 0 4.126.346 5.76 1.228l.156.076v4.527l-.038.077c-1.596 2.11-3.932 3.3-6.5 3.3-3.037 0-4.75-1.688-4.75-4.796-.038-2.763 1.986-4.412 5.372-4.412Zm-5.879-8.863c.157.345.74 1.61.935 1.957 1.908-1.036 3.737-1.497 5.8-1.497 3.348 0 5.02 1.65 5.02 4.95v2.954l-.427-.23c-1.401-.729-3.347-1.19-5.332-1.19-3.892 0-8.097 1.727-8.097 6.523 0 5.87 4.71 6.522 6.695 6.522 2.57 0 4.749-.959 6.618-2.954l.506-.5v2.994h2.568V30.325c0-4.45-2.413-6.6-7.395-6.6-2.453.038-4.905.576-6.89 1.574Zm22.149 2.072v-3.185H99.85v20.642h2.569V32.703c0-4.297 2.141-6.907 5.683-6.907 3.736 0 5.449 2.188 5.449 6.907v12.124h2.569V32.205c0-5.525-2.569-8.44-7.395-8.44-2.413 0-4.477 1.035-5.8 2.915l-.506.69Zm18.955-9.822v27.278h2.57V38.92l4.126-5.486s5.526 11.087 5.682 11.394h2.725c-.35-.729-6.773-13.428-6.773-13.428s4.944-6.447 5.528-7.214h-2.803c-.817 1.113-7.045 9.708-7.045 9.708l-1.401 2.071V16.167c-.622.308-2.374 1.267-2.608 1.382h-.001Z"/><path d="M54.797 19.62c-4.1-5.601-10.931-8.908-17.841-8.908-6.95 0-13.783 3.307-17.842 8.909l-.196.311h5.154l.038-.077c3.515-3.502 8.122-5.33 12.846-5.33 4.723 0 9.291 1.828 12.844 5.33l.078.077h5.153l-.234-.311Z"/></g><defs><clipPath id="a"><path fill="#fff" d="M.477.8h136v54.4h-136z"/></clipPath></defs></svg>