<svg viewBox="0 0 166 56" fill="none" xmlns="http://www.w3.org/2000/svg"><g clip-path="url(#a)" fill="#fff" fill-opacity=".9"><path d="M71.625 29.219c0 7.773-6.08 13.5-13.543 13.5-7.463 0-13.544-5.727-13.544-13.5 0-7.828 6.081-13.501 13.544-13.501 7.462 0 13.543 5.673 13.543 13.5Zm-5.928 0c0-4.858-3.525-8.181-7.615-8.181s-7.615 3.323-7.615 8.18c0 4.81 3.524 8.182 7.615 8.182 4.09 0 7.614-3.379 7.614-8.181ZM100.842 29.219c0 7.773-6.08 13.5-13.543 13.5-7.463 0-13.544-5.727-13.544-13.5 0-7.822 6.081-13.501 13.544-13.501s13.543 5.673 13.543 13.5Zm-5.928 0c0-4.858-3.525-8.181-7.615-8.181s-7.615 3.323-7.615 8.18c0 4.81 3.525 8.182 7.615 8.182s7.615-3.379 7.615-8.181ZM128.843 16.533v24.239c0 9.97-5.88 14.042-12.832 14.042-6.543 0-10.482-4.376-11.967-7.955l5.162-2.149c.919 2.197 3.171 4.79 6.799 4.79 4.45 0 7.207-2.745 7.207-7.913v-1.941h-.207c-1.327 1.637-3.883 3.067-7.109 3.067-6.751 0-12.935-5.88-12.935-13.446 0-7.62 6.184-13.55 12.935-13.55 3.22 0 5.776 1.431 7.109 3.02h.207V16.54h5.631v-.007Zm-5.211 12.734c0-4.754-3.171-8.23-7.207-8.23-4.09 0-7.517 3.476-7.517 8.23 0 4.706 3.427 8.133 7.517 8.133 4.036 0 7.207-3.427 7.207-8.133ZM138.125 2.326v39.565h-5.783V2.326h5.783ZM160.659 33.661l4.602 3.068c-1.486 2.198-5.065 5.984-11.249 5.984-7.67 0-13.397-5.929-13.397-13.501 0-8.029 5.776-13.501 12.733-13.501 7.007 0 10.434 5.576 11.554 8.589l.614 1.534-18.048 7.474c1.382 2.709 3.531 4.09 6.544 4.09 3.019 0 5.113-1.485 6.647-3.737Zm-14.164-4.857 12.064-5.01c-.664-1.686-2.66-2.86-5.01-2.86-3.013 0-7.207 2.66-7.054 7.87ZM22.65 25.706v-5.728H41.95c.189.999.286 2.18.286 3.458 0 4.297-1.174 9.611-4.96 13.397-3.683 3.835-8.388 5.88-14.621 5.88-11.553 0-21.268-9.41-21.268-20.963S11.103.786 22.656.786c6.391 0 10.944 2.508 14.365 5.777l-4.042 4.041c-2.453-2.3-5.776-4.09-10.33-4.09-8.436 0-15.034 6.8-15.034 15.236s6.598 15.235 15.035 15.235c5.472 0 8.588-2.197 10.585-4.194 1.619-1.619 2.684-3.932 3.104-7.091l-13.69.006Z"/></g><defs><clipPath id="a"><path fill="#fff" d="M.951 0h165v56h-165z"/></clipPath></defs></svg>