<svg viewBox="0 0 116 32" fill="none" xmlns="http://www.w3.org/2000/svg"><g clip-path="url(#a)"><path d="M62.283 23.16v6.97a9.157 9.157 0 0 1-2.794 1.415 10.901 10.901 0 0 1-3.178.445 10.534 10.534 0 0 1-3.818-.655 8.554 8.554 0 0 1-2.909-1.84 8.066 8.066 0 0 1-1.864-2.788 9.384 9.384 0 0 1-.654-3.538 9.785 9.785 0 0 1 .63-3.568 7.836 7.836 0 0 1 4.592-4.598 10.192 10.192 0 0 1 3.723-.644c.656-.004 1.312.051 1.959.165.577.104 1.144.258 1.694.46.498.185.976.423 1.424.71.425.275.825.588 1.195.934l-.92 1.454a.86.86 0 0 1-.56.42 1 1 0 0 1-.75-.17l-.769-.455a5.245 5.245 0 0 0-.874-.395 7.645 7.645 0 0 0-2.474-.38 5.953 5.953 0 0 0-2.304.43 4.827 4.827 0 0 0-1.759 1.23 5.447 5.447 0 0 0-1.12 1.918 7.437 7.437 0 0 0-.394 2.5 7.61 7.61 0 0 0 .425 2.638c.254.732.659 1.403 1.189 1.969a5.072 5.072 0 0 0 1.84 1.21 7.137 7.137 0 0 0 4.122.22 8.553 8.553 0 0 0 1.47-.546v-3.103H57.23a.65.65 0 0 1-.5-.175.575.575 0 0 1-.174-.425V23.16h5.727Zm5.232-1.465a5.262 5.262 0 0 1 1.36-1.724 2.883 2.883 0 0 1 1.858-.625c.481-.025.958.104 1.36.37l-.19 2.204a.59.59 0 0 1-.17.305.5.5 0 0 1-.305.09 3.38 3.38 0 0 1-.53-.06 4.097 4.097 0 0 0-.69-.06 2.5 2.5 0 0 0-.869.14 2.183 2.183 0 0 0-.685.414c-.21.189-.39.408-.534.65a6.135 6.135 0 0 0-.435.87v7.53H64.78V19.572h1.724a.97.97 0 0 1 .635.16.95.95 0 0 1 .24.58l.135 1.384Zm5.677-.42a7.24 7.24 0 0 1 5.082-1.929 4.955 4.955 0 0 1 1.92.35 4.028 4.028 0 0 1 1.429 1c.398.431.701.942.89 1.499.207.615.31 1.26.304 1.909V31.8h-1.34a1.32 1.32 0 0 1-.639-.125.86.86 0 0 1-.36-.5l-.26-.884a10.1 10.1 0 0 1-.91.734 5.43 5.43 0 0 1-.914.53 5.178 5.178 0 0 1-1 .33 5.997 5.997 0 0 1-1.199.11 4.815 4.815 0 0 1-1.429-.205 3.138 3.138 0 0 1-1.134-.63 2.8 2.8 0 0 1-.74-1.034c-.182-.46-.27-.95-.26-1.445 0-.314.053-.627.155-.924.11-.321.279-.618.5-.875.265-.305.573-.569.914-.784a5.58 5.58 0 0 1 1.375-.645c.62-.203 1.258-.354 1.904-.45a18.372 18.372 0 0 1 2.498-.205v-.72a2.673 2.673 0 0 0-.524-1.818 1.914 1.914 0 0 0-1.5-.59 3.648 3.648 0 0 0-1.189.165 4.693 4.693 0 0 0-.824.375l-.65.374a1.26 1.26 0 0 1-.65.17.849.849 0 0 1-.524-.16 1.304 1.304 0 0 1-.345-.38l-.58-.939Zm6.747 5.302c-.721.026-1.439.101-2.15.225-.48.075-.949.212-1.394.41a1.784 1.784 0 0 0-.75.585 1.444 1.444 0 0 0 .236 1.834c.351.238.77.355 1.194.335.542.013 1.079-.1 1.57-.33a4.761 4.761 0 0 0 1.294-1v-2.059Zm16.256-12.493V31.8h-1.799a.695.695 0 0 1-.74-.535l-.25-1.18a6.195 6.195 0 0 1-1.699 1.37 4.583 4.583 0 0 1-2.233.5 3.973 3.973 0 0 1-3.274-1.63 5.802 5.802 0 0 1-.93-1.933 9.85 9.85 0 0 1-.329-2.67 8.382 8.382 0 0 1 .37-2.528 6.102 6.102 0 0 1 1.064-1.999 4.936 4.936 0 0 1 1.654-1.344 4.817 4.817 0 0 1 2.17-.5c.6-.017 1.197.092 1.753.32.48.212.92.506 1.3.87v-6.452l2.943-.005Zm-2.928 8.61a2.97 2.97 0 0 0-1.09-.86 3.268 3.268 0 0 0-1.27-.249 2.84 2.84 0 0 0-1.203.25c-.37.17-.692.432-.935.76a3.593 3.593 0 0 0-.585 1.284 7.414 7.414 0 0 0-.2 1.844c-.01.609.046 1.218.17 1.814.09.434.26.847.5 1.22.195.295.468.53.79.679a2.5 2.5 0 0 0 1.034.205 2.999 2.999 0 0 0 1.564-.38c.47-.285.885-.653 1.225-1.084v-5.483Zm8.83-8.605v17.71h-2.943V14.09h2.943Zm5.212 11.964a5.71 5.71 0 0 0 .335 1.629c.15.421.385.807.69 1.134.279.294.62.521.999.665.418.152.86.227 1.305.22.417.008.833-.048 1.234-.165.312-.098.614-.221.905-.37.259-.135.499-.26.679-.37.171-.102.366-.16.565-.165.22-.015.43.09.55.275l.864 1.09a4.726 4.726 0 0 1-1.094.96 6.095 6.095 0 0 1-1.27.619 6.975 6.975 0 0 1-1.349.33 9.365 9.365 0 0 1-1.324.095 6.464 6.464 0 0 1-2.374-.425 5.329 5.329 0 0 1-1.909-1.25 5.902 5.902 0 0 1-1.274-2.048 7.928 7.928 0 0 1-.465-2.834c-.006-.802.131-1.6.405-2.354a5.665 5.665 0 0 1 1.164-1.919 5.504 5.504 0 0 1 1.844-1.294 6.152 6.152 0 0 1 2.464-.5 5.927 5.927 0 0 1 2.134.37 4.624 4.624 0 0 1 1.679 1.08 4.91 4.91 0 0 1 1.104 1.738c.278.754.413 1.552.4 2.354.025.307-.025.616-.145.9a.594.594 0 0 1-.55.23l-7.566.005Zm5.613-1.774a3.658 3.658 0 0 0-.165-1.08 2.601 2.601 0 0 0-.5-.884 2.215 2.215 0 0 0-.815-.605 2.833 2.833 0 0 0-1.149-.22 2.729 2.729 0 0 0-1.999.725 3.564 3.564 0 0 0-.935 2.064h5.563ZM40.924 2.01a6.856 6.856 0 0 0-9.535-.16.634.634 0 0 0-.205.465.654.654 0 0 0 .19.475l.864.864c.23.23.595.255.855.06a3.933 3.933 0 0 1 5.137 5.927c-5.432 5.462-12.723-9.8-29.22-1.949a2.239 2.239 0 0 0-1 3.144l2.83 4.892a2.244 2.244 0 0 0 3.033.835l.07-.04-.055.04 1.254-.705a28.846 28.846 0 0 0 3.953-2.944.685.685 0 0 1 .9-.03.645.645 0 0 1 0 1 29.879 29.879 0 0 1-4.133 3.118l-.045.025-1.255.7c-.528.3-1.126.456-1.734.455a3.593 3.593 0 0 1-3.113-1.784L7.036 11.78C1.9 15.408-1.219 22.4.455 31.245c.06.308.33.53.644.53h3.044a.65.65 0 0 0 .67-.57 4.468 4.468 0 0 1 8.86 0 .65.65 0 0 0 .634.57h2.969a.655.655 0 0 0 .65-.57 4.463 4.463 0 0 1 8.855 0 .65.65 0 0 0 .645.57h2.933a.65.65 0 0 0 .65-.64c.07-4.138 1.184-8.89 4.368-11.27C46.366 11.63 43.472 4.57 40.924 2.01Zm-11.23 12.454-2.098-1.055a1.32 1.32 0 1 1 2.099 1.06v-.005Z" fill="#fff"/></g><defs><clipPath id="a"><path fill="#fff" d="M0 0h115.576v32H0z"/></clipPath></defs></svg>