<svg viewBox="0 0 88 40" fill="none" xmlns="http://www.w3.org/2000/svg"><g clip-path="url(#a)" fill="#fff"><path d="M14.647 15.095c.316-.015.58-.035.844-.039.47-.006.939-.011 1.408.003a.451.451 0 0 1 .305.141c.82 1.037 1.627 2.083 2.44 3.125.412.53.828 1.056 1.262 1.61.064-.083.117-.15.168-.22.62-.85 1.19-1.743 1.87-2.54 1.011-1.184 2.05-2.346 3.243-3.36 1.234-1.05 2.428-2.151 3.772-3.058a117.418 117.418 0 0 1 4.288-2.728c.682-.418 1.4-.786 2.121-1.132a149.382 149.382 0 0 1 3.83-1.762c2.395-1.064 4.876-1.888 7.392-2.616a61.716 61.716 0 0 1 6.122-1.455 86.913 86.913 0 0 1 4.18-.643c2.48-.328 4.974-.447 7.477-.416 2.251.027 4.486.207 6.707.578 2.206.368 4.366.909 6.444 1.744 1.992.8 3.865 1.818 5.481 3.247a12.127 12.127 0 0 1 2.59 3.18 10.283 10.283 0 0 1 1.209 3.56c.118.813.141 1.631.062 2.456-.173 1.8-.737 3.48-1.547 5.08-.72 1.42-1.617 2.725-2.624 3.96a30.833 30.833 0 0 1-3.046 3.198 39.927 39.927 0 0 1-4.48 3.535 53.022 53.022 0 0 1-5.723 3.401 54.122 54.122 0 0 1-5.07 2.305.28.28 0 0 1-.188.019c.077-.045.15-.096.23-.134 1.827-.882 3.52-1.99 5.15-3.178 2.33-1.7 4.445-3.646 6.19-5.964 1.151-1.527 2.094-3.174 2.734-4.973.641-1.801.838-3.669.486-5.558-.308-1.66-1.016-3.15-2.064-4.481-1.174-1.492-2.642-2.622-4.287-3.536-1.472-.818-3.029-1.43-4.647-1.897a27.143 27.143 0 0 0-3.866-.837c-1.03-.14-2.067-.26-3.105-.32a43.344 43.344 0 0 0-3.645-.09c-1.386.036-2.771.15-4.155.261-1.552.125-3.085.388-4.608.704a56.1 56.1 0 0 0-5.283 1.355 52.837 52.837 0 0 0-4.849 1.768c-1.574.665-3.125 1.382-4.6 2.247a78.407 78.407 0 0 0-3.69 2.298c-1.222.811-2.353 1.744-3.444 2.726a25.935 25.935 0 0 0-3.846 4.296c-1.166 1.648-2.071 3.424-2.553 5.397a12.023 12.023 0 0 0-.312 2.277c-.084 1.728.28 3.355 1.013 4.91.458.97 1.05 1.85 1.764 2.651.064.072.137.138.212.2.066.057.14.104.21.155l-.068.07c-.423-.322-.863-.626-1.266-.971-.873-.75-1.683-1.564-2.325-2.526-.926-1.388-1.567-2.885-1.781-4.557-.294-2.296.172-4.461 1.076-6.556.06-.139.049-.226-.042-.342-1.536-1.952-3.07-3.906-4.6-5.862-.105-.135-.445-.594-.566-.707v.001Z"/><path d="M32.257 18.474V29.05c0 .324 0 .324-.316.325-.491.003-.984.003-1.476.014-.137.002-.192-.043-.188-.182.008-.25.007-.5.007-.749l.002-11.397c0-.432.008-.863.014-1.294 0-.082.027-.37.023-.406.009-.148.009-.188.01-.258.065-.014.129-.037.193-.039.416-.01.832-.02 1.249-.018.07 0 .161.045.21.1.931 1.058 1.858 2.123 2.787 3.185.735.84 1.474 1.677 2.209 2.518.754.864 1.504 1.732 2.258 2.597.788.904 1.578 1.807 2.368 2.71.008.009.026.009.052.017.002-.039.005-.074.005-.109-.001-1.286-.004-2.573-.004-3.86-.001-2.291 0-4.584-.008-6.875 0-.205.048-.284.263-.276.514.02 1.03.019 1.543.028.058.001.116.017.19.029v13.971c0 .252-.122.377-.366.377-.416 0-.833.01-1.249-.006a.468.468 0 0 1-.302-.138 1047.99 1047.99 0 0 1-3.994-4.575c-1.188-1.368-2.37-2.74-3.557-4.11-.618-.714-1.238-1.425-1.858-2.136-.007-.009-.026-.008-.065-.02ZM3.83 27.688H13v1.844H0L9.17 17.03l-.031-.062H.93c-.308 0-.311-.002-.318-.303-.01-.439-.002-.878-.026-1.315-.011-.21.06-.255.254-.255 1.885.004 3.77-.002 5.655-.002 1.969 0 3.937.005 5.905.008h.634L3.83 27.688ZM73.151 29.456c-.848 0-1.627.004-2.406-.006-.08-.001-.18-.075-.238-.144-.961-1.164-1.916-2.333-2.875-3.5-.622-.757-1.248-1.512-1.889-2.286-.373.445-.737.875-1.097 1.31a3160.708 3160.708 0 0 0-3.699 4.465.405.405 0 0 1-.346.166c-.756-.007-1.513-.003-2.337-.003l6.182-7.446-5.69-6.897c.113-.016.154-.027.194-.027.705-.003 1.409-.01 2.113.002.11.001.254.062.322.145 1.061 1.278 2.112 2.563 3.165 3.847.35.427.7.852 1.048 1.28.038.047.063.103.111.183.29-.348.536-.643.78-.938 1.183-1.428 2.367-2.855 3.546-4.286.145-.175.298-.27.538-.266.62.012 1.241-.004 1.862-.007.06 0 .12.01.228.02-.05.104-.076.197-.132.265-1.464 1.767-2.93 3.531-4.397 5.296-.347.419-.69.841-1.043 1.255-.083.097-.075.156.003.25 1.778 2.144 3.554 4.29 5.33 6.436.23.278.457.556.728.885ZM55.918 21.228c0 .643.004 1.216-.008 1.788-.001.046-.12.126-.185.128-.4.012-.802.007-1.203.007-1.416 0-2.832.003-4.248-.005-.198 0-.26.051-.259.254.009 1.31.005 2.619.005 3.928 0 .067.007.133.013.24h.435c1.848.003 3.695.006 5.543.012.312 0 .315.007.316.32.001.439-.004.878.003 1.316.002.173-.056.242-.237.242-2.65-.004-5.3-.005-7.95 0-.21 0-.23-.101-.23-.268.003-1.142.002-2.285-.002-3.427l-.036-9.718v-.466c.02-.344.018-.354.027-.4.052-.029.103-.081.156-.083.484-.017.969-.031 1.453-.033 2.09-.008 4.18-.013 6.27-.017.329-.001.329.002.33.338v1.227c-.002.303-.002.305-.304.305h-5.475c-.208 0-.312.101-.312.304v3.792c0 .27.01.277.288.233.074-.012.15-.013.226-.013l3.451-.004h1.933ZM2.376 34.644c-.006.065-.013.129-.016.193-.079 1.61-.159 3.218-.234 4.827-.007.136-.059.19-.192.188-.56-.007-.555.076-.5-.502.088-.933.132-1.87.197-2.805.06-.852.123-1.704.182-2.556.008-.118.05-.187.178-.18.015.002.03 0 .046 0 .494-.017.82.208.976.676l1.393 4.154c.006.02.02.038.048.085.032-.064.062-.11.08-.16a1472.89 1472.89 0 0 0 1.624-4.553c.05-.142.119-.214.277-.204.188.01.38-.01.566.011.06.007.155.098.16.156.055.701.095 1.403.141 2.105.072 1.102.14 2.204.22 3.305.034.457-.155.613-.6.453-.053-.02-.102-.125-.106-.193-.039-.626-.069-1.253-.098-1.88-.048-1.013-.093-2.025-.14-3.037-.002-.03-.012-.058-.027-.12-.038.052-.07.079-.081.113-.522 1.452-1.042 2.905-1.563 4.358-.061.17-.137.337-.184.512-.049.184-.158.226-.333.226-.176 0-.276-.048-.334-.226-.496-1.51-1-3.016-1.5-4.524-.047-.14-.077-.287-.115-.43a2.931 2.931 0 0 0-.065.008ZM16.583 36.848c0-.892.005-1.785-.004-2.677-.003-.2.057-.283.26-.298.905-.064 1.808-.167 2.707.06 1.16.294 1.94 1.246 1.979 2.44.017.537.008 1.074-.175 1.59-.377 1.058-1.163 1.652-2.238 1.82-.62.096-1.264.055-1.897.062-.633.006-.633-.002-.633-.639v-2.359Zm.764-.022c0 .734.007 1.468-.004 2.201-.003.211.076.284.278.278.31-.01.62.006.93-.005.937-.032 1.852-.711 2.069-1.597a4.9 4.9 0 0 0 .117-1.324c-.03-.822-.441-1.426-1.19-1.788-.648-.314-1.339-.264-2.027-.226-.173.01-.174.133-.173.26v2.201ZM40.983 39.846c-.256 0-.468.017-.673-.01-.068-.008-.148-.118-.177-.199-.18-.49-.352-.983-.512-1.479-.052-.162-.129-.23-.305-.227-.575.01-1.15.009-1.725 0-.167-.002-.242.065-.29.218-.16.497-.335.988-.49 1.486-.053.17-.142.23-.312.219-.155-.011-.311-.003-.5-.003.033-.119.05-.198.076-.275.62-1.842 1.24-3.683 1.856-5.527.055-.167.132-.244.32-.245.665 0 .666-.008.883.623l1.76 5.129c.027.076.048.155.09.29h-.001Zm-2.53-5.32c-.041.075-.06.099-.068.126-.263.829-.523 1.658-.79 2.486-.049.155-.004.211.15.21.485-.002.97 0 1.454-.004.048 0 .095-.025.164-.044l-.91-2.773ZM10.454 36.826c0-.915.005-1.83-.004-2.746-.002-.2.051-.279.268-.276.915.01 1.832.013 2.747-.001.246-.004.291.094.283.307-.013.33-.003.333-.274.334-.659.001-1.317.007-1.976-.004-.22-.004-.289.076-.283.29.012.469.01.938 0 1.407-.003.188.069.253.253.251.613-.006 1.226-.003 1.839-.001.267 0 .261.007.271.338.007.196-.021.308-.264.302-.613-.015-1.226.002-1.84-.008-.2-.004-.262.068-.26.263.01.553.012 1.105 0 1.657-.004.223.083.284.294.281.696-.01 1.393.007 2.089-.008.255-.006.259.127.256.31-.004.183.017.338-.258.335-.961-.014-1.922-.01-2.884-.002-.197.002-.263-.06-.262-.26.008-.922.004-1.846.004-2.768h.001ZM31.942 39.976c-.5-.007-.979-.083-1.421-.299-.87-.423-1.375-1.13-1.546-2.08-.155-.862-.067-1.69.38-2.454.538-.92 1.384-1.346 2.419-1.42.49-.036.982-.01 1.46.141.185.06.285.134.166.335a.502.502 0 0 0-.054.148c-.04.186-.128.206-.309.152-.825-.248-1.634-.236-2.37.27-.644.442-.907 1.096-.926 1.852-.01.434-.028.866.14 1.296.32.817.915 1.244 1.756 1.388.493.084.966.004 1.43-.148.183-.06.269-.044.32.16.096.38.11.4-.284.483-.383.081-.774.12-1.161.176ZM43.788 36.814c0-.908.006-1.815-.004-2.723-.002-.214.056-.295.28-.287.56.02.488-.062.49.48.002 1.542 0 3.085 0 4.628 0 .302.002.304.304.304.673.001 1.347.007 2.02-.003.202-.002.282.052.275.267-.014.37-.001.371-.373.371-.908 0-1.816-.005-2.724.004-.209.002-.274-.067-.271-.274.008-.923.003-1.846.003-2.768ZM25.215 36.828c0-.915.006-1.83-.005-2.744-.002-.222.071-.287.287-.28.552.02.482-.061.483.486.002 1.754.001 3.508 0 5.261 0 .299 0 .302-.305.3-.52-.002-.457.053-.459-.46-.003-.855 0-1.709 0-2.563ZM75.068 14.338c0 .501-.375.871-.873.863-.489-.008-.85-.386-.853-.89-.002-.454.388-.823.87-.824.499 0 .857.356.856.851Zm-.245.012c.003-.374-.25-.65-.601-.653-.36-.004-.624.259-.632.626-.007.38.252.66.619.668.344.008.61-.27.614-.641Z"/><path d="M74.378 14.758h.174l-.186-.342.017-.006a.233.233 0 0 0 .103-.094.283.283 0 0 0 .035-.144.286.286 0 0 0-.035-.144.236.236 0 0 0-.102-.096.367.367 0 0 0-.167-.035h-.323v.86h.156v-.314h.16l.168.315Zm-.328-.73h.143c.04 0 .071.005.096.017a.115.115 0 0 1 .055.05.162.162 0 0 1 .018.077c0 .03-.006.057-.018.078a.109.109 0 0 1-.055.047.237.237 0 0 1-.095.016h-.144v-.286Z"/></g><defs><clipPath id="a"><path fill="#fff" d="M0 0h87.954v40H0z"/></clipPath></defs></svg>