<svg viewBox="0 0 76 72" fill="none" xmlns="http://www.w3.org/2000/svg"><g clip-path="url(#a)"><path d="M65.838 36c0 16.417-13.523 29.94-29.967 29.94S5.904 52.418 5.904 36c0-16.421 13.217-29.942 29.967-29.942 16.113 0 29.967 13.526 29.967 29.941Z" stroke="#fff" stroke-opacity=".95" stroke-width=".7"/><path d="M42.711 51.943c12.96 5.323 10.697-8.126 3.806-18.437-3.909-5.837-9.026-10.697-12.24-13.063-10.672-7.792-17.255-3.06-9.72 12.291 2.443 4.963 5.58 8.332 8.023 11.469 1.877 2.417 5.503 3.626 4.217 4.757-1.44 1.286-4.937-4.397-4.937-4.397-2.572-3.111-5.04-6.429-7.586-11.006-5.786-10.414-4.963-21.034 5.529-16.406C38.7 21.086 47.21 32.117 50.63 39.934c1.569 3.626 5.889 17.923-7.817 12.138" fill="#fff"/><path d="M2.417 44.974c5.709-3.805 11.109-6.248 20.289-9.282 12.908-4.269 22.654-7.149 34.585-13.14 5.349-2.675 14.606-8.692 17.923-13.938-1.003 2.032-4.063 5.966-5.451 7.715C53.563 36.592 19.08 35.46 2.649 45.18" fill="#A3A3A4"/><path d="M10.697 30.163c5.22.051 4.706 0 4.757.051.103 0 4.166 7.02 4.166 7.072 0 .025-.026-2.495-.026-5.658 0-.36-1.003-1.44-.977-1.44 1.491 0 3.445.026 3.445.026-.72.849-.874.771-.874 1.312a291.257 291.257 0 0 0 0 8.331c0 .514.386.72 1.029 1.646h-4.783a749.435 749.435 0 0 1-4.372-7.406c.026.026-.05 3.034.026 5.477.026.797.386 1.054 1.055 1.8 0 0 .771-.026-3.729.026 1.363-.72 1.183-1.646 1.183-1.672-.052-3.368 0-6.223 0-8.074 0-.308-.026-.283-.952-1.44l.052-.051ZM27 35.357c.437-1.517.823-2.88.977-3.754.026-.155-.335-.695-.9-1.235l-.052-.077c2.777 0 5.683.026 5.683.026.772 1.851 2.495 7.046 3.806 10.234.334.849.951 1.003.951 1.003-2.365-.026-6.763 0-6.737-.026 1.183-1.054 1.029-1.054.514-2.622H27.54c-.772 1.748.231 2.597.36 2.571-.849.051-3.703 0-3.703 0 1.543-1.106 1.466-1.44 1.466-1.44.411-1.517.9-3.189 1.337-4.68h1.517c-.334 1.054-.643 2.083-.643 2.083h2.957l-1.646-4.192s-.334 1.055-.642 2.083L27 35.357Zm25.483.129c.437-1.518.822-2.88.977-3.755.025-.154-.335-.694-.9-1.234l-.052-.077c2.777 0 5.709.025 5.709.025.771 1.852 2.494 7.046 3.806 10.235.334.848.951 1.003.951 1.003-2.366-.026-6.763 0-6.737-.026 1.183-1.054 1.029-1.054.514-2.623h-3.754c-.772 1.749.231 2.597.36 2.572-.849.051-3.703 0-3.703 0 1.543-1.106 1.466-1.44 1.466-1.44.437-1.518.925-3.163 1.363-4.68H54c-.335 1.054-.643 2.108-.643 2.108h2.931l-1.645-4.191s-.335 1.054-.643 2.083h-1.517Zm-4.809-2.47c-.051-2.16 0-2.853 0-2.853-.952.771-.463.668-2.829.282-6.788-1.13-7.328 5.22-3.625 6.66 3.111 1.183 4.217 1.44 3.728 2.546-.154.36-2.983 1.697-5.888-1.003l.051 3.755c.36-.386 1.363-1.055 1.363-1.055.026 0 3.163 1.389 5.991-.051 4.346-2.211 2.186-5.811-2.468-7.226-3.857-1.183-.206-3.96 3.626-1.003l.051-.051ZM36.308 8.46a.258.258 0 0 1-.514 0c0-.129.103-.257.257-.257.129 0 .257.128.257.257Zm1.697 3.728a.313.313 0 0 1-.308.309.313.313 0 0 1-.309-.309c0-.154.129-.308.309-.308.18.025.308.154.308.308Zm4.449 6.12a.313.313 0 0 1-.309.309.313.313 0 0 1-.308-.309c0-.154.128-.308.283-.308.18 0 .334.154.334.308Zm-7.149-4.011a.258.258 0 0 1-.514 0c0-.129.103-.257.257-.257.154.026.257.128.257.257Zm2.675 1.414a.258.258 0 0 1-.515 0c0-.128.103-.257.257-.257.13 0 .258.129.258.257Zm-3.472-3.934a.313.313 0 0 1-.308.309.313.313 0 0 1-.309-.31c0-.153.129-.308.309-.308s.308.155.308.309Zm-4.011 2.443a.258.258 0 0 1-.514 0c0-.129.102-.257.257-.257.128.025.257.128.257.257Zm.72.514a.258.258 0 0 1-.514 0 .258.258 0 0 1 .514 0Zm.72.489a.258.258 0 0 1-.515 0c0-.129.103-.258.258-.258.128 0 .257.13.257.258Zm-1.106.951a.258.258 0 0 1-.514 0 .258.258 0 0 1 .514 0Zm-5.734 4.012a.258.258 0 0 1-.515 0c0-.13.103-.258.258-.258.128.026.257.129.257.258Zm1.054 1.285a.258.258 0 0 1-.514 0c0-.128.103-.257.257-.257.154.026.257.129.257.257Zm-.849 20.854a.258.258 0 0 1-.514 0 .258.258 0 0 1 .514 0Zm.155 5.735a.313.313 0 0 1-.309.308.313.313 0 0 1-.308-.308c0-.154.128-.309.308-.309.18.026.309.155.309.309Zm-3.266 2.957a.258.258 0 0 1-.514 0c0-.129.103-.257.257-.257.154 0 .257.128.257.257ZM18.282 52.2a.313.313 0 0 1-.308.308.313.313 0 0 1-.309-.308c0-.155.129-.309.309-.309.154 0 .308.154.308.309Zm-.797-2.649a.313.313 0 0 1-.308.309.313.313 0 0 1-.309-.309c0-.154.129-.308.309-.308.154 0 .308.154.308.308Zm-.462 1.697a.258.258 0 0 1-.515 0c0-.128.103-.257.257-.257.155 0 .258.103.258.257Zm-2.932-1.414a.258.258 0 0 1-.514 0c0-.129.103-.257.257-.257.154.026.257.129.257.257Zm10.234 4.757c0 .129-.102.257-.231.257a.258.258 0 0 1 0-.514c.103 0 .231.103.231.257Zm3.06-2.263c0 .155-.128.309-.283.309a.313.313 0 0 1-.308-.309c0-.154.128-.308.308-.308.155 0 .283.128.283.308Zm.36 2.906a.276.276 0 0 1-.257.257.258.258 0 0 1 0-.514c.129 0 .257.103.257.257Zm12.652-2.777a.258.258 0 0 1-.514 0 .258.258 0 0 1 .514 0Zm-5.889 2.083a.258.258 0 0 1-.514 0 .258.258 0 0 1 .514 0Zm15.84 3.008a.258.258 0 0 1-.514 0c0-.128.103-.257.257-.257.154 0 .257.129.257.257Zm1.312-11.674a.313.313 0 0 1-.309.309.313.313 0 0 1-.309-.309c0-.154.13-.309.31-.309.153 0 .308.13.308.31Zm-2.443 1.646a.258.258 0 0 1-.514 0 .258.258 0 0 1 .514 0Zm2.391.463a.313.313 0 0 1-.308.308.313.313 0 0 1-.309-.308c0-.155.129-.309.309-.309.18.026.308.154.308.309Zm-2.391 2.957a.258.258 0 0 1-.514 0 .258.258 0 0 1 .514 0Zm6.197-6.712a.258.258 0 0 1-.514 0c0-.154.103-.257.257-.257.129 0 .257.103.257.257Zm.591 1.492c0 .154-.128.308-.282.308a.313.313 0 0 1-.309-.308c0-.154.129-.309.309-.309.154 0 .282.129.282.309Zm4.27 1.774a.313.313 0 0 1-.31.309.313.313 0 0 1-.308-.309c0-.154.129-.309.309-.309s.308.155.308.31Zm-4.347 3.189a.258.258 0 0 1-.514 0c0-.129.103-.258.257-.258.154 0 .257.103.257.258Zm2.752-2.597a.258.258 0 0 1-.257.257c-.155 0-.258-.103-.258-.258a.258.258 0 0 1 .514 0Zm-.514 3.985a.258.258 0 0 1-.515 0c0-.128.103-.257.257-.257.155.026.258.129.258.257Zm1.157-6.608c0 .205-.18.385-.386.385a.395.395 0 0 1-.386-.385c0-.206.18-.386.386-.386.231 0 .386.18.386.386Z" fill="#fff"/><path d="m58.963 44.306-.103 1.054-1.029.103 1.054.103.103 1.08.103-1.08 1.029-.129-1.029-.103-.128-1.028Zm-2.289 7.74c0 .205-.18.385-.386.385a.395.395 0 0 1-.385-.385c0-.206.18-.386.385-.386.206.026.386.18.386.386Z" fill="#fff"/><path d="m56.288 50.888-.102 1.055-1.029.102 1.054.103.103 1.08.103-1.08 1.029-.128-1.029-.103-.129-1.029ZM28.338 20.7c0 .205-.18.385-.387.385a.395.395 0 0 1-.385-.385c0-.206.18-.386.386-.386.205 0 .385.18.385.386Z" fill="#fff"/><path d="m27.951 19.543-.102 1.054-1.029.103 1.054.103.103 1.08.103-1.08 1.029-.128-1.029-.103-.129-1.029Zm14.503-8.023c0 .206-.18.386-.386.386a.395.395 0 0 1-.385-.386c0-.205.18-.386.386-.386.231 0 .385.18.385.386Z" fill="#fff"/><path d="m42.094 10.363-.103 1.054-1.029.103 1.055.103.103 1.08.102-1.08 1.029-.128-1.029-.103-.128-1.029ZM25.277 58.14c0 .206-.18.386-.386.386a.395.395 0 0 1-.386-.386c0-.206.18-.386.386-.386.206 0 .386.18.386.386Z" fill="#fff"/><path d="m24.917 56.982-.103 1.055-1.028.103 1.054.102.103 1.08.103-1.08 1.029-.128-1.03-.103-.128-1.029Z" fill="#fff"/><path d="M75.214 8.614C70.586 22.32 52.072 32.915 36.49 43.02 27.077 49.114 17.743 56.134 11.34 62.1c-1.697 1.569.334-.591-.308.077 8.974-10.337 19.285-16.483 24.994-20.34 9.643-6.557 15.12-8.203 31.757-23.528l7.431-9.695Zm-68.94 33.97c-1.671.822-3.137 1.62-4.397 2.39l.772.283a33.02 33.02 0 0 1 3.831-2.005" fill="#A3A3A4"/><path d="M15.043 57.935a132.951 132.951 0 0 0-4.654 4.217l-.077 1.054c1.44-1.49 3.214-3.085 5.245-4.782" fill="#A3A3A4"/><path d="M42.711 51.943c12.96 5.323 10.697-8.125 3.806-18.437-3.909-5.837-8.743-10.466-12.24-13.063-4.089-3.034-4.474-3.266-4.474-3.266C38.93 21.497 47.21 32.143 50.63 39.96c1.569 3.626 5.889 17.923-7.817 12.137" fill="#fff"/></g><defs><clipPath id="a"><path fill="#fff" d="M.951 0h74.571v72H.952z"/></clipPath></defs></svg>