<svg viewBox="0 0 179 56" fill="none" xmlns="http://www.w3.org/2000/svg"><g clip-path="url(#a)" fill="#fff"><path d="M80.185 28.452c0-1.15.207-2.237.626-3.263a8.314 8.314 0 0 1 1.741-2.688 8.238 8.238 0 0 1 2.688-1.826c1.049-.451 2.203-.677 3.467-.677 1.262 0 2.417.226 3.466.677a8.23 8.23 0 0 1 2.688 1.826 8.307 8.307 0 0 1 1.741 2.688 8.59 8.59 0 0 1 .626 3.263c0 1.15-.209 2.238-.626 3.263a8.525 8.525 0 0 1-1.741 2.706 8.099 8.099 0 0 1-2.688 1.842c-1.049.451-2.204.677-3.466.677-1.263 0-2.418-.226-3.467-.677a8.089 8.089 0 0 1-2.688-1.842 8.483 8.483 0 0 1-1.741-2.706 8.582 8.582 0 0 1-.626-3.263Zm8.522 5.039c.765 0 1.431-.153 1.995-.457a4.264 4.264 0 0 0 1.403-1.2 5.272 5.272 0 0 0 .829-1.623c.18-.586.27-1.171.27-1.758 0-.563-.09-1.143-.27-1.74a5.034 5.034 0 0 0-.83-1.624 4.343 4.343 0 0 0-1.402-1.183c-.564-.304-1.23-.457-1.995-.457-.767 0-1.432.153-1.995.457a4.342 4.342 0 0 0-1.404 1.183 5.052 5.052 0 0 0-.829 1.623 5.994 5.994 0 0 0-.27 1.741c0 .587.09 1.172.27 1.758.18.586.457 1.128.83 1.623.371.496.839.896 1.403 1.2.563.306 1.228.457 1.995.457ZM114.374 34.302a8.592 8.592 0 0 1-2.638 1.895c-1.014.473-2.198.71-3.551.71-1.352 0-2.558-.203-3.617-.608-1.061-.407-1.951-.98-2.672-1.725-.722-.743-1.274-1.635-1.657-2.672-.384-1.037-.575-2.186-.575-3.449 0-1.15.207-2.236.626-3.263a8.303 8.303 0 0 1 1.741-2.688 8.244 8.244 0 0 1 2.688-1.826c1.049-.45 2.203-.676 3.466-.676 1.285 0 2.457.231 3.517.693a8.166 8.166 0 0 1 2.706 1.876l-2.537 2.57a4.926 4.926 0 0 0-1.588-1.217c-.608-.292-1.309-.44-2.096-.44-.767 0-1.432.142-1.995.424a4.254 4.254 0 0 0-1.403 1.099c-.373.45-.649.98-.83 1.588a6.494 6.494 0 0 0-.27 1.86c0 .609.091 1.207.27 1.792.18.586.457 1.116.83 1.589.372.473.839.857 1.403 1.15.563.293 1.228.439 1.995.439.789 0 1.51-.153 2.164-.457a4.9 4.9 0 0 0 1.657-1.234l2.366 2.57ZM116.977 20.54h3.99v9.603c0 1.015.276 1.798.829 2.35.552.553 1.269.829 2.148.829a3.631 3.631 0 0 0 2.74-1.218c.338-.383.602-.83.795-1.336a4.614 4.614 0 0 0 .288-1.64V20.54h3.99V36.4h-3.821l-.101-1.792a7.553 7.553 0 0 1-.745.71c-.293.248-.631.48-1.014.693a5.811 5.811 0 0 1-1.319.524 6.446 6.446 0 0 1-1.691.203c-1.985 0-3.495-.592-4.531-1.776-1.037-1.183-1.556-2.778-1.556-4.785V20.54h-.002ZM137.03 11.33h3.99v25.068h-3.99V11.33ZM146.227 20.54h3.99v9.603c0 1.015.276 1.798.829 2.35.552.553 1.269.829 2.148.829a3.631 3.631 0 0 0 2.74-1.218c.338-.383.602-.83.795-1.336a4.614 4.614 0 0 0 .288-1.64V20.54h3.99V36.4h-3.821l-.101-1.792a7.553 7.553 0 0 1-.745.71c-.293.248-.631.48-1.014.693a5.811 5.811 0 0 1-1.319.524 6.446 6.446 0 0 1-1.691.203c-1.985 0-3.495-.592-4.531-1.776-1.037-1.183-1.556-2.778-1.556-4.785V20.54h-.002ZM167.228 31.868c.496.497 1.122.908 1.877 1.234.755.327 1.616.491 2.587.491.855 0 1.544-.112 2.063-.338.518-.225.777-.598.777-1.115 0-.226-.046-.434-.135-.626-.09-.192-.282-.377-.575-.558-.294-.181-.699-.36-1.218-.541a21.503 21.503 0 0 0-2.096-.576 14.46 14.46 0 0 1-1.691-.541 6.425 6.425 0 0 1-1.641-.93 5.018 5.018 0 0 1-1.25-1.42c-.326-.552-.491-1.212-.491-1.979 0-.789.191-1.494.575-2.114a5.067 5.067 0 0 1 1.506-1.556 7.45 7.45 0 0 1 2.096-.964 8.39 8.39 0 0 1 2.35-.338c1.397 0 2.586.147 3.567.44.98.293 1.865.732 2.655 1.318l-2.063 2.806c-.429-.316-.993-.602-1.691-.861-.699-.26-1.522-.39-2.468-.39-.947 0-1.607.142-1.979.424-.373.281-.558.626-.558 1.03 0 .497.31.886.93 1.168.62.282 1.584.58 2.891.896.812.18 1.538.406 2.181.676.642.27 1.194.608 1.657 1.015.461.406.817.885 1.065 1.437.247.553.372 1.212.372 1.979 0 .767-.181 1.46-.542 2.08a4.865 4.865 0 0 1-1.471 1.572c-.62.429-1.341.76-2.164.998a9.42 9.42 0 0 1-2.621.355c-1.488 0-2.83-.21-4.025-.626-1.195-.417-2.153-1.031-2.874-1.844l2.404-2.602ZM44.763 8.717H19.806C9.155 8.717.521 17.35.521 28c0 10.65 8.633 19.283 19.284 19.283h24.957c10.65 0 19.283-8.633 19.283-19.283 0-10.65-8.633-19.283-19.283-19.283ZM51.378 28a6.39 6.39 0 0 1-6.39 6.39h-25.41a6.39 6.39 0 0 1 0-12.78h25.41a6.39 6.39 0 0 1 6.39 6.39Z"/></g><defs><clipPath id="a"><path fill="#fff" d="M.522 0h178v56h-178z"/></clipPath></defs></svg>