<svg viewBox="0 0 179 56" fill="none" xmlns="http://www.w3.org/2000/svg"><g clip-path="url(#a)" fill="#fff"><path d="M152.671 25.51v14.112h4.388v-9.369h16.365v9.369h4.506V25.628l-25.259-.118ZM156.584 21.003h17.314c2.372-.474 4.151-2.609 4.625-4.625h-26.682c.593 2.016 2.372 4.151 4.743 4.625ZM139.033 39.622c2.253-.949 3.439-2.61 3.914-4.507h-20.16V16.497h-4.507v23.125h20.753ZM84.72 21.003h15.891c2.372-.711 4.388-2.49 4.862-4.506h-25.14v13.638h20.752v4.743H84.838c-2.49.712-4.743 2.372-5.81 4.625H105.473V25.51H84.72v-4.507ZM45.467 21.003h17.314c2.372-.474 4.15-2.609 4.744-4.625H40.724c.474 2.016 2.372 4.151 4.743 4.625ZM45.467 30.135h17.314c2.372-.475 4.15-2.61 4.744-4.625H40.724c.474 2.016 2.372 4.15 4.743 4.625ZM45.467 39.621h17.314c2.372-.474 4.15-2.608 4.744-4.624H40.724c.474 2.016 2.372 4.15 4.743 4.624ZM.523 16.378c.474 2.016 2.253 4.151 4.625 4.625h7.234l.355.119v18.381h4.507V21.241l.355-.12h7.234c2.372-.592 4.15-2.608 4.625-4.624L.523 16.378Z"/></g><defs><clipPath id="a"><path fill="#fff" d="M.523 0h178v56h-178z"/></clipPath></defs></svg>