<svg viewBox="0 0 180 56" fill="none" xmlns="http://www.w3.org/2000/svg"><g clip-path="url(#a)" fill="#fff"><path d="M177.153 20.298a2.36 2.36 0 0 0-2.37 2.37 2.36 2.36 0 0 0 2.37 2.37 2.36 2.36 0 0 0 2.37-2.37 2.36 2.36 0 0 0-2.37-2.37Zm0 4.345c-1.053 0-1.975-.922-1.975-1.975 0-1.054.922-1.975 1.975-1.975s1.975.921 1.975 1.975c0 1.053-.79 1.974-1.975 1.974Z"/><path d="M178.338 22.14c0-.658-.527-.79-.922-.79h-1.185v2.634h.395V22.93h.659l.658 1.054h.527l-.659-1.185c.395-.132.527-.395.527-.659Zm-.527 0c0 .264-.131.395-.526.395h-.659v-.79h.659c.395 0 .526.132.526.395ZM66.034 35.307c-1.711-1.711-1.053-3.291 1.185-5.266-1.185-.922-1.712-2.238-1.975-3.423-.658-3.16 1.448-5.793 4.74-6.32 1.711-.395 3.423-.131 5.003.659.263.131.79.131.921-.132.922-.658 1.844-.922 3.028-.922.395 0 .659.132.659.659V22.8h-2.37c.263.79.527 1.448.658 2.238.395 2.238-.658 4.608-3.028 5.53-1.185.394-2.106.658-3.555.658-.79 0-1.053-.132-1.448 0s-.79.263-1.053.921c-.395.659.658.659.921.659 1.712.131 3.424.131 5.004.131.658 0 1.448.132 2.238.395 1.448.395 2.501 1.185 2.764 2.765.264 1.58-.131 3.028-1.448 4.081-.658.396-1.448.922-2.106 1.054-2.765.79-5.53.79-8.426.131-.132-.131-.395-.131-.659-.131-3.028-1.317-3.554-3.818-1.053-5.925Zm7.636-9.742v-.395c-.131-1.185-.921-1.975-2.106-2.107-1.185-.131-1.975.658-2.238 1.843a4.985 4.985 0 0 0 0 1.975c.131.922.921 1.712 1.843 1.712 1.448.131 2.501-.922 2.501-3.028Zm-1.711 13.56c1.448 0 2.501-.131 3.554-.526.395-.132.79-.395.79-1.054 0-.526-.658-.526-1.184-.658-1.975-.132-3.95-.263-5.793-.395-.659 0-1.185-.132-1.317.658-.132.79.132 1.185.79 1.449.921.395 1.58.526 3.16.526ZM23.377 36.36h-4.213V14.375h4.213v7.636c.395-.132.527-.395.79-.395 1.053-.395 1.975-1.053 3.028-1.185 2.37-.526 4.477.922 4.872 3.423.131.659.131 1.317.131 1.975v10.796h-4.344V26.75c0-.395 0-.659-.132-1.053-.263-1.712-1.317-2.239-2.896-1.449-1.054.527-1.712 1.185-1.712 2.765.132 2.896 0 5.793 0 8.69.263-.132.263.263.263.658ZM105.927 14.374c.921 0 2.238-.132 2.238-.132s.132.658.395 1.712c.922 5.003 1.975 9.874 3.028 14.877.132.263.263 1.185.263 1.185.395-1.843.922-4.081 1.317-5.925.79-3.686 1.711-7.373 2.501-11.059.132-.263.132-.658.132-.658h2.37s.132.395.132.658c1.053 5.266 2.238 10.664 3.423 15.93.131.264.263.922.263.922.395-1.843.922-3.95 1.317-5.793.789-3.686 1.579-7.24 2.369-10.927.132-.395.264-.922.264-.922h2.238l-.395 1.975c-1.448 6.32-2.765 12.507-4.345 18.827a5.065 5.065 0 0 1-.395 1.317h-2.37c-1.185-5.925-2.501-11.718-3.686-17.642h-.132c-.263 1.053-.395 1.974-.658 3.028-.922 4.476-1.975 9.084-2.896 13.56-.132.395-.264.922-.264.922h-2.37c-1.711-7.11-3.159-14.35-4.739-21.855ZM81.306 14.374h4.213v7.636a31.885 31.885 0 0 0 1.449-.922c1.184-.658 2.501-1.184 3.95-.921 1.974.395 3.29 1.58 3.422 3.686.132 4.213.132 8.163.132 12.508H90.26V26.355c0-.922.132-1.975-.921-2.502-1.054-.526-1.975.132-2.765.659-.659.395-.922.921-.922 1.711.132 3.028 0 6.056 0 8.953v1.053h-4.213c-.132-7.11-.132-14.482-.132-21.855ZM49.84 20.561h4.214c0 .395.131.659.131.922v9.742c.132 2.107 1.448 2.765 3.423 1.58.922-.658 1.449-1.184 1.449-2.501-.132-3.16 0-6.32 0-9.611 0-.132 0-.132.131-.263h4.081v15.798h-4.08c0-.395-.133-.921-.133-1.448-.658.395-1.316.922-1.974 1.185-.79.263-1.58.658-2.37.658-2.502.132-4.345-1.184-4.477-3.686-.526-4.081-.394-8.163-.394-12.376ZM47.997 29.12c-.131 1.711-.526 3.423-1.448 4.871a6.52 6.52 0 0 1-10.927 0c-2.107-3.291-2.107-6.715-.395-10.138 1.185-2.501 3.291-3.686 6.056-3.686s4.74 1.448 5.924 3.95c.659 1.448.922 3.16.79 5.003Zm-9.874-.527c0 1.975.263 2.633.658 3.818a2.345 2.345 0 0 0 2.107 1.317c.922 0 1.58-.527 1.975-1.449.921-2.501.921-5.003 0-7.504-.395-.922-.922-1.448-1.975-1.448s-1.712.658-2.107 1.448c-.395.922-.658 1.975-.658 3.818ZM7.184 36.36v-18.3H1.39v-3.686h15.93v3.686h-5.66v18.3H7.183ZM105.4 33.201v3.16s-.131.132-.395.132c-1.053.395-2.238.395-3.423.263-2.238-.395-3.686-2.107-3.686-4.74v-7.899c-.659 0-1.185-.132-1.975-.132v-3.423h1.843v-3.95h4.213v3.95h3.292v3.555h-3.16c0 .395-.132.658-.132.921v6.583c0 1.975.922 2.502 2.765 1.712.132 0 .395-.132.658-.132ZM153.06 27.671c1.448-1.843 2.896-3.818 4.476-5.661.395-.658.922-1.053.922-1.053l2.501-.132c-1.053 1.317-1.975 2.502-3.028 3.686-.527.659-1.185 1.712-1.185 1.712s.395 1.053.79 1.712c1.317 2.37 2.37 5.003 3.686 7.372.132.395.264.658.527 1.053h-2.238l-.132-.263c-.131-.131-.131-.263-.263-.395-1.053-2.238-2.107-4.476-3.028-6.583-.132-.395-.395-.658-.527-1.184-.79.921-1.58 1.974-2.238 2.764-.132.264-.132.659-.132.922v4.608h-2.238V14.242h2.238V27.54c-.395.132-.263.132-.131.132ZM126.86 28.592c0-1.711.132-3.554 1.053-5.134 1.053-2.107 2.897-3.16 5.266-3.16 2.37 0 4.345.921 5.267 3.16 1.448 3.423 1.448 6.977-.132 10.4-.922 1.975-2.765 3.029-5.003 3.029-2.238.131-4.213-.79-5.266-2.765-.922-1.712-1.185-3.687-1.185-5.53Zm2.238 0c0 1.843.263 2.633.658 3.95.527 1.448 1.712 2.501 3.423 2.501 1.58 0 2.765-.79 3.292-2.238 1.053-2.764 1.053-5.53 0-8.294-.527-1.448-1.712-2.238-3.423-2.238-1.58 0-2.633.79-3.16 2.238-.263.921-.658 1.711-.79 4.081ZM172.94 23.063c-.527.395-.921.79-1.448 1.185l-.922-.922c-1.185-1.053-2.501-1.317-4.081-.79-1.712.658-1.975 2.633-.527 3.686.79.527 1.712.922 2.502 1.185.79.395 1.711.527 2.37.922 3.028 1.448 3.291 5.793.395 7.636-2.897 1.843-7.373.658-8.953-2.501.527-.395 1.053-.659 1.711-1.054.264.264.395.659.659.922 1.053 1.448 3.028 1.975 4.739 1.448 1.054-.395 1.712-.921 1.844-2.106.131-1.185-.395-1.975-1.449-2.502-.79-.395-1.58-.658-2.369-.921-.659-.264-1.185-.395-1.844-.659-1.975-.921-2.764-2.37-2.501-4.476.263-1.843 1.58-3.16 3.555-3.686 2.238-.527 4.739.395 6.319 2.633ZM143.449 36.36h-2.238V20.826h2.238v2.897c1.185-1.975 2.501-3.555 5.266-3.16v1.975c-1.448-.132-2.502.395-3.423 1.58-1.053 1.448-1.975 2.896-1.843 4.74.131 2.238 0 4.344 0 6.582v.922Z"/></g><defs><clipPath id="a"><path fill="#fff" d="M.523 0h179v56h-179z"/></clipPath></defs></svg>