<svg viewBox="0 0 151 56" fill="none" xmlns="http://www.w3.org/2000/svg"><g clip-path="url(#a)" fill="#fff"><path d="m16.727 14.843 4.85 19.025 4.748-19.025h5.23l-7.672 25.183h-4.61l-7.5-25.183h4.954Zm29.346 0h6.778l7.156 25.218h-5.092l-1.686-6.296h-7.534s-1.308 5.057-1.583 6.192c-1.514.104-5.195 0-5.195 0l7.156-25.114Zm26.147 0h4.954v20.952h10.562v4.231H72.22V14.843Zm26.663 0 4.851 18.784 4.713-18.784h5.092l-7.638 25.218h-4.472l-7.638-25.218h5.092Zm35.642 0v3.268h-6.778v3.647h6.193v3.268h-6.193v3.75h6.778v3.269h-10.562V14.843h10.562ZM.523 48.765h150V6h-150"/><path d="m49.572 19.092-2.66 10.64h5.564l-2.904-10.64Z"/></g><defs><clipPath id="a"><path fill="#fff" d="M.523 0h150v56h-150z"/></clipPath></defs></svg>