<svg viewBox="0 0 109 56" fill="none" xmlns="http://www.w3.org/2000/svg"><g clip-path="url(#a)" fill="#fff"><path d="M36.803 44.255 42.04 11.83h8.373l-5.237 32.425h-8.373ZM75.544 12.625c-1.655-.65-4.259-1.36-7.502-1.36-8.278 0-14.105 4.4-14.153 10.7-.053 4.661 4.158 7.261 7.333 8.81 3.262 1.588 4.358 2.604 4.345 4.024-.022 2.172-2.604 3.167-5.011 3.167-3.352 0-5.133-.49-7.886-1.7l-1.078-.517-1.17 7.258c1.952.903 5.571 1.687 9.328 1.729 8.797 0 14.513-4.348 14.58-11.076.03-3.696-2.2-6.498-7.033-8.81-2.925-1.504-4.721-2.5-4.7-4.022.001-1.348 1.516-2.79 4.796-2.79 2.738-.044 4.721.586 6.266 1.245l.751.371 1.134-7.029ZM86.694 32.76c.693-1.865 3.335-9.064 3.335-9.064-.049.085.69-1.879 1.113-3.094l.565 2.797s1.606 7.74 1.937 9.36h-6.95Zm10.33-20.897h-6.472c-2.007 0-3.509.574-4.388 2.688L73.73 44.267h8.794s1.435-3.998 1.76-4.875c.96 0 9.504.017 10.724.017.251 1.131 1.02 4.858 1.02 4.858h7.771l-6.776-32.404ZM29.778 11.857l-8.195 22.106-.878-4.494c-1.527-5.177-6.28-10.789-11.598-13.6l7.497 28.358 8.861-.006L38.65 11.857h-8.872Z"/><path d="M13.976 11.835H.475l-.112.672c10.506 2.686 17.457 9.17 20.343 16.963l-2.934-14.9c-.506-2.054-1.978-2.663-3.796-2.735ZM106.181 42.136h.396c.281 0 .338-.164.338-.295 0-.227-.147-.28-.375-.28h-.359v.575Zm-.343-.826h.818c.19 0 .609.05.609.53 0 .128-.038.308-.312.424v.01c.236.04.249.264.263.444.017.286 0 .337.074.438h-.354c-.068-.068-.053-.121-.068-.421 0-.17-.022-.344-.406-.344h-.281v.765h-.343V41.31Zm.676 2.506c.84 0 1.499-.697 1.499-1.568 0-.872-.659-1.569-1.499-1.569-.84 0-1.499.697-1.499 1.569 0 .87.659 1.568 1.499 1.568Zm0-3.418c1.035 0 1.849.83 1.849 1.85a1.84 1.84 0 0 1-1.849 1.849 1.84 1.84 0 0 1-1.848-1.85c0-1.02.812-1.849 1.848-1.849Z"/></g><defs><clipPath id="a"><path fill="#fff" d="M.363 0h108v56h-108z"/></clipPath></defs></svg>