<svg viewBox="0 0 57 56" fill="none" xmlns="http://www.w3.org/2000/svg"><g clip-path="url(#a)"><path fill-rule="evenodd" clip-rule="evenodd" d="M28.474 56A28 28 0 1 0 .477 28a27.927 27.927 0 0 0 27.997 28Zm-8.111-15.344c-.176 0-.224-.16-.336-.336L7.149 14.336c2.289-3.56 5.42-6.5 9.118-8.56l9.295 20.656a.659.659 0 0 0 .672.448h4.48a.66.66 0 0 0 .736-.448l9.295-20.656a26.128 26.128 0 0 1 9.118 8.56L36.873 40.32c-.048.176-.16.336-.336.336-.16 0-.224-.16-.336-.336l-4.863-11.088a.678.678 0 0 0-.736-.448h-4.48a.65.65 0 0 0-.72.448L20.7 40.32c-.064.176-.176.336-.336.336Zm8.111-18.416c-.16 0-.224-.176-.336-.336l-7.951-17.92a24.312 24.312 0 0 1 16.574 0l-7.951 17.92c-.112.224-.16.336-.336.336Zm0 31.184A25.493 25.493 0 0 1 3.117 28a25 25 0 0 1 1.616-8.896l14.846 29.84a1.002 1.002 0 0 0 .896.736 1.02 1.02 0 0 0 .896-.736l6.831-15.28c.048-.176.16-.336.336-.336.16 0 .224.16.336.336l6.831 15.28a1.003 1.003 0 0 0 .896.736 1.02 1.02 0 0 0 .896-.736l14.83-29.84A24.662 24.662 0 0 1 53.96 28a25.666 25.666 0 0 1-25.485 25.424Z" fill="#fff"/></g><defs><clipPath id="a"><path fill="#fff" d="M.477 0h56v56h-56z"/></clipPath></defs></svg>